<svg width="1280" height="720" viewBox="0 0 1280 720" fill="none" xmlns="http://www.w3.org/2000/svg">
  <rect width="1280" height="720" fill="#E7F2F6"/>
  <rect x="130" y="120" width="780" height="470" rx="28" fill="#C8E8F5"/>
  <rect x="160" y="150" width="720" height="410" rx="18" fill="#9FD5F2"/>
  <rect x="972" y="170" width="188" height="360" rx="26" fill="#FFFFFF"/>
  <path d="M1038 214C1038 192 1056 174 1078 174C1100 174 1118 192 1118 214V314H1038V214Z" fill="#F2F7FA"/>
  <path d="M1078 314L1038 454H1118L1078 314Z" fill="#8FD0F0"/>
  <ellipse cx="460" cy="374" rx="180" ry="98" fill="#F59D3D"/>
  <ellipse cx="586" cy="368" rx="102" ry="72" fill="#F4B25E"/>
  <path d="M286 374C226 324 194 306 154 302C178 354 180 394 154 446C226 434 252 420 286 374Z" fill="#F59D3D"/>
  <circle cx="528" cy="344" r="8" fill="#27313B"/>
  <rect x="250" y="486" width="82" height="58" rx="14" fill="#6DBE85" fill-opacity="0.7"/>
  <rect x="356" y="470" width="70" height="74" rx="14" fill="#6DBE85" fill-opacity="0.6"/>
  <rect x="470" y="492" width="74" height="52" rx="14" fill="#6DBE85" fill-opacity="0.68"/>
</svg>
