<svg width="1280" height="720" viewBox="0 0 1280 720" fill="none" xmlns="http://www.w3.org/2000/svg">
  <rect width="1280" height="720" rx="36" fill="#EAF0F5"/>
  <rect x="54" y="54" width="1172" height="612" rx="28" fill="#FBFCFE" stroke="#BCC9D5"/>
  <text x="96" y="118" fill="#40586B" font-family="Arial, sans-serif" font-size="34" font-weight="700">Draft Editor</text>
  <text x="96" y="160" fill="#6A7882" font-family="Arial, sans-serif" font-size="20">A clean first version for editorial review, without losing the linked research context.</text>
  <rect x="96" y="206" width="734" height="408" rx="24" fill="#FFFFFF" stroke="#D2DCE5"/>
  <rect x="862" y="206" width="322" height="408" rx="24" fill="#F4F8FB" stroke="#D2DCE5"/>
  <text x="128" y="252" fill="#40586B" font-family="Arial, sans-serif" font-size="22" font-weight="700">Draft article</text>
  <text x="128" y="302" fill="#556872" font-family="Arial, sans-serif" font-size="18">Intro paragraph with a clear answer and natural transition.</text>
  <rect x="128" y="338" width="670" height="20" rx="10" fill="#E9EFF4"/>
  <rect x="128" y="374" width="640" height="20" rx="10" fill="#E9EFF4"/>
  <rect x="128" y="410" width="682" height="20" rx="10" fill="#E9EFF4"/>
  <text x="128" y="478" fill="#40586B" font-family="Arial, sans-serif" font-size="22" font-weight="700">Main sections</text>
  <rect x="128" y="514" width="654" height="16" rx="8" fill="#E9EFF4"/>
  <rect x="128" y="544" width="610" height="16" rx="8" fill="#E9EFF4"/>
  <rect x="128" y="574" width="590" height="16" rx="8" fill="#E9EFF4"/>
  <text x="894" y="252" fill="#40586B" font-family="Arial, sans-serif" font-size="22" font-weight="700">Review panel</text>
  <text x="894" y="308" fill="#556872" font-family="Arial, sans-serif" font-size="18">- Research still attached</text>
  <text x="894" y="344" fill="#556872" font-family="Arial, sans-serif" font-size="18">- Event log available</text>
  <text x="894" y="380" fill="#556872" font-family="Arial, sans-serif" font-size="18">- Ready for approval</text>
  <rect x="894" y="452" width="180" height="50" rx="25" fill="#5E839A"/>
  <text x="930" y="484" fill="#F8FBFD" font-family="Arial, sans-serif" font-size="20" font-weight="700">Approve</text>
</svg>
